PathFileType	3	(X/Y/Z)	running_2__view1_aligned.trc
DataRate	CameraRate	NumFrames	NumMarkers	Units	OrigDataRate	OrigDataStartFrame	OrigNumFrames
100.0	100.0	15	19	mm	100.0	1072	6354
Frame#	Time	pelvis			neck			head			hip_left			hip_right			knee_left			knee_right			ankle_left			ankle_right			heel_left			heel_right			toe_left			toe_right			shoulder_left			shoulder_right			elbow_left			elbow_right			wrist_left			wrist_right			
		X1	Y1	Z1	X2	Y2	Z2	X3	Y3	Z3	X4	Y4	Z4	X5	Y5	Z5	X6	Y6	Z6	X7	Y7	Z7	X8	Y8	Z8	X9	Y9	Z9	X10	Y10	Z10	X11	Y11	Z11	X12	Y12	Z12	X13	Y13	Z13	X14	Y14	Z14	X15	Y15	Z15	X16	Y16	Z16	X17	Y17	Z17	X18	Y18	Z18	X19	Y19	Z19	
1072	10.71000	11.126088	946.042035	143.395548	-18.143838	1484.684945	294.631134	2.649314	1555.523246	444.835081	88.528814	948.397419	142.870352	-66.276309	943.686699	143.920403	98.671853	538.729739	340.664221	-128.115431	511.806382	224.644190	101.820889	156.565788	229.288336	-171.968104	226.711131	-69.328948	102.030013	112.535021	192.001606	-171.670133	215.186869	-124.726403	94.113666	97.565002	399.805960	-177.260649	64.806904	14.092295	144.007562	1486.500564	237.139462	-185.648492	1424.109723	263.216304	238.922366	1295.452885	61.141074	-261.362569	1162.000455	201.163110	254.416638	1100.485635	187.500203	-176.863164	1044.886588	398.248516
1073	10.72000	12.419992	947.071361	142.400711	-16.265848	1485.593663	294.383123	4.312129	1556.797392	444.660655	89.714116	949.497798	141.969509	-64.873804	944.644972	142.831571	100.097213	539.605485	334.160235	-126.464692	513.549093	225.597615	103.972961	153.887258	225.842544	-171.058372	228.794812	-65.235466	104.146214	108.871974	188.677941	-170.845488	217.231868	-120.165893	97.720726	96.576207	399.862754	-176.283424	68.129395	17.755376	146.310297	1486.567292	237.911330	-183.787757	1426.259188	261.709283	240.628396	1293.453807	66.661420	-260.437496	1166.108642	196.521220	251.571999	1103.427344	195.124401	-176.881353	1046.449372	391.490068
1074	10.73000	13.713897	948.100688	141.405874	-14.387858	1486.502381	294.135111	5.974945	1558.071538	444.486229	90.899419	950.598178	141.068665	-63.471299	945.603245	141.742739	101.522572	540.481230	327.656248	-124.813953	515.291804	226.551039	106.125033	151.208728	222.396753	-170.148640	230.878493	-61.141984	106.262416	105.208927	185.354277	-170.020844	219.276866	-115.605382	101.327785	95.587412	399.919548	-175.306200	71.451886	21.418456	148.613033	1486.634021	238.683199	-181.927023	1428.408652	260.202263	242.334425	1291.454729	72.181767	-259.512422	1170.216829	191.879331	248.727359	1106.369052	202.748598	-176.899542	1048.012155	384.731620
1075	10.74000	15.007801	949.130014	140.411036	-12.509868	1487.411099	293.887100	7.637760	1559.345684	444.311802	92.084721	951.698558	140.167821	-62.068794	946.561518	140.653907	102.947932	541.356975	321.152262	-123.163215	517.034516	227.504464	108.277105	148.530198	218.950961	-169.238908	232.962174	-57.048503	108.378618	101.545880	182.030612	-169.196200	221.321865	-111.044872	104.934845	94.598617	399.976341	-174.328976	74.774377	25.081537	150.915768	1486.700749	239.455067	-180.066289	1430.558116	258.695242	244.040455	1289.455652	77.702113	-258.587349	1174.325016	187.237441	245.882720	1109.310761	210.372795	-176.917731	1049.574938	377.973172
1076	10.75000	16.301705	950.159340	139.416199	-10.631878	1488.319816	293.639089	9.300575	1560.619830	444.137376	93.270024	952.798938	139.266978	-60.666289	947.519791	139.565075	104.373291	542.232720	314.648275	-121.512476	518.777227	228.457889	110.429177	145.851668	215.505169	-168.329177	235.045855	-52.955021	110.494819	97.882834	178.706947	-168.371555	223.366864	-106.484362	108.541905	93.609822	400.033135	-173.351751	78.096869	28.744617	153.218503	1486.767477	240.226936	-178.205555	1432.707580	257.188221	245.746484	1287.456574	83.222460	-257.662276	1178.433204	182.595552	243.038080	1112.252469	217.996992	-176.935920	1051.137721	371.214724
1077	10.76000	17.595609	951.188667	138.421361	-8.753888	1489.228534	293.391078	10.963390	1561.893975	443.962950	94.455326	953.899317	138.366134	-59.263785	948.478064	138.476243	105.798651	543.108465	308.144289	-119.861737	520.519939	229.411314	112.581249	143.173138	212.059378	-167.419445	237.129536	-48.861539	112.611021	94.219787	175.383282	-167.546911	225.411862	-101.923852	112.148965	92.621027	400.089929	-172.374527	81.419360	32.407698	155.521239	1486.834206	240.998804	-176.344821	1434.857044	255.681201	247.452513	1285.457497	88.742806	-256.737202	1182.541391	177.953662	240.193441	1115.194178	225.621189	-176.954109	1052.700504	364.456276
1078	10.77000	18.889513	952.217993	137.426524	-6.875898	1490.137252	293.143066	12.626205	1563.168121	443.788523	95.640629	954.999697	137.465290	-57.861280	949.436337	137.387411	107.224010	543.984210	301.640302	-118.210998	522.262650	230.364739	114.733321	140.494608	208.613586	-166.509713	239.213217	-44.768058	114.727223	90.556740	172.059617	-166.722267	227.456861	-97.363342	115.756024	91.632232	400.146722	-171.397303	84.741851	36.070778	157.823974	1486.900934	241.770673	-174.484086	1437.006508	254.174180	249.158543	1283.458419	94.263152	-255.812129	1186.649578	173.311772	237.348801	1118.135886	233.245386	-176.972298	1054.263288	357.697828
1079	10.78000	20.310305	952.355775	136.450819	-5.724010	1490.126717	292.485213	13.205988	1563.640889	443.258098	97.040423	955.137561	136.527912	-56.419522	949.574033	136.373416	107.563628	542.711526	292.724321	-115.783318	523.722941	233.684297	113.193191	139.468573	198.217647	-164.467392	238.660833	-34.421498	112.723816	89.981684	161.543332	-164.915531	226.102711	-86.219061	114.703977	89.099410	387.981923	-168.775794	87.462853	48.131554	159.860548	1485.941021	242.743158	-173.319647	1437.796949	251.357668	252.302835	1280.596336	99.045230	-255.366925	1189.057638	166.397882	232.891772	1120.253046	241.551867	-179.122035	1054.276336	349.434117
1080	10.79000	21.731096	952.493558	135.475114	-4.572122	1490.116182	291.827359	13.785770	1564.113657	442.727674	98.440217	955.275425	135.590534	-54.977763	949.711730	135.359421	107.903246	541.438842	283.808339	-113.355638	525.183231	237.003855	111.653060	138.442537	187.821708	-162.425071	238.108450	-24.074938	110.720409	89.406629	151.027046	-163.108795	224.748562	-75.074779	113.651930	86.566589	375.817125	-166.154286	90.183854	60.192329	161.897122	1484.981107	243.715644	-172.155208	1438.587390	248.541155	255.447127	1277.734254	103.827308	-254.921722	1191.465699	159.483992	228.434742	1122.370206	249.858347	-181.271772	1054.289385	341.170405
1081	10.80000	23.151887	952.631340	134.499409	-3.420235	1490.105647	291.169505	14.365552	1564.586425	442.197249	99.840011	955.413288	134.653156	-53.536005	949.849426	134.345426	108.242864	540.166158	274.892358	-110.927958	526.643522	240.323413	110.112929	137.416502	177.425770	-160.382750	237.556066	-13.728378	108.717003	88.831573	140.510761	-161.302060	223.394413	-63.930498	112.599883	84.033768	363.652326	-163.532778	92.904855	72.253104	163.933695	1484.021194	244.688130	-170.990768	1439.377831	245.724642	258.591420	1274.872171	108.609385	-254.476519	1193.873759	152.570102	223.977712	1124.487365	258.164828	-183.421509	1054.302433	332.906693
1082	10.81000	24.572678	952.769123	133.523705	-2.268347	1490.095112	290.511652	14.945335	1565.059193	441.666824	101.239806	955.551152	133.715778	-52.094247	949.987123	133.331432	108.582482	538.893474	265.976376	-108.500278	528.103813	243.642971	108.572799	136.390467	167.029831	-158.340429	237.003683	-3.381818	106.713596	88.256517	129.994476	-159.495324	222.040263	-52.786217	111.547835	81.500947	351.487527	-160.911269	95.625857	84.313879	165.970269	1483.061281	245.660615	-169.826329	1440.168272	242.908129	261.735712	1272.010088	113.391463	-254.031316	1196.281819	145.656212	219.520683	1126.604525	266.471308	-185.571245	1054.315482	324.642982
1083	10.82000	25.993470	952.906905	132.548000	-1.116459	1490.084577	289.853798	15.525117	1565.531961	441.136399	102.639600	955.689016	132.778400	-50.652489	950.124819	132.317437	108.922100	537.620790	257.060394	-106.072598	529.564103	246.962529	107.032668	135.364431	156.633892	-156.298108	236.451299	6.964741	104.710189	87.681462	119.478191	-157.688588	220.686114	-41.641936	110.495788	78.968126	339.322728	-158.289761	98.346858	96.374654	168.006843	1482.101367	246.633101	-168.661890	1440.958713	240.091617	264.880004	1269.148006	118.173540	-253.586112	1198.689879	138.742322	215.063653	1128.721685	274.777789	-187.720982	1054.328530	316.379270
1084	10.83000	27.414261	953.044688	131.572295	0.035428	1490.074042	289.195944	16.104899	1566.004729	440.605974	104.039394	955.826879	131.841022	-49.210731	950.262516	131.303442	109.261718	536.348106	248.144413	-103.644919	531.024394	250.282087	105.492537	134.338396	146.237953	-154.255787	235.898916	17.311301	102.706783	87.106406	108.961905	-155.881853	219.331964	-30.497655	109.443741	76.435305	327.157929	-155.668253	101.067859	108.435430	170.043417	1481.141454	247.605587	-167.497451	1441.749154	237.275104	268.024297	1266.285923	122.955618	-253.140909	1201.097940	131.828432	210.606623	1130.838844	283.084269	-189.870719	1054.341579	308.115558
1085	10.84000	28.835052	953.182470	130.596590	1.187316	1490.063507	288.538091	16.684681	1566.477497	440.075549	105.439188	955.964743	130.903643	-47.768973	950.400212	130.289447	109.601336	535.075423	239.228431	-101.217239	532.484684	253.601645	103.952407	133.312360	135.842014	-152.213466	235.346532	27.657861	100.703376	86.531350	98.445620	-154.075117	217.977815	-19.353374	108.391694	73.902484	314.993130	-153.046745	103.788861	120.496205	172.079991	1480.181541	248.578072	-166.333011	1442.539595	234.458591	271.168589	1263.423840	127.737695	-252.695706	1203.506000	124.914542	206.149594	1132.956004	291.390750	-192.020456	1054.354627	299.851847
1086	10.85000	30.255843	953.320252	129.620885	2.339204	1490.052972	287.880237	17.264464	1566.950265	439.545124	106.838982	956.102607	129.966265	-46.327215	950.537908	129.275453	109.940953	533.802739	230.312450	-98.789559	533.944975	256.921203	102.412276	132.286325	125.446075	-150.171145	234.794149	38.004421	98.699969	85.956295	87.929335	-152.268381	216.623665	-8.209092	107.339646	71.369662	302.828331	-150.425236	106.509862	132.556980	174.116565	1479.221627	249.550558	-165.168572	1443.330036	231.642078	274.312881	1260.561758	132.519773	-252.250503	1205.914060	118.000652	201.692564	1135.073164	299.697230	-194.170193	1054.367676	291.588135
